<svg xmlns="http://www.w3.org/2000/svg" width="1920" height="1080" viewBox="0 0 1920 1080" version="1.1">
	<path d="M 221.500 321.586 C 219.850 321.821, 214.900 322.484, 210.500 323.059 C 206.100 323.634, 197.427 325.440, 191.226 327.072 C 142.114 340, 101.434 373.140, 78.552 418.863 C 45.869 484.171, 57.738 564.388, 107.903 617.231 C 135.331 646.123, 167.813 663.533, 207.500 670.613 C 221.357 673.085, 250.643 673.085, 264.500 670.613 C 296.401 664.922, 324.530 652.076, 348.054 632.455 C 400.799 588.462, 423.217 518.865, 406.088 452.284 C 401.652 435.037, 393.576 416.911, 383.241 401 C 356.597 359.982, 313.225 331.647, 264.500 323.423 C 255.716 321.940, 227.481 320.734, 221.500 321.586 M 700.500 412.491 C 699.950 412.675, 698.271 413.096, 696.768 413.427 C 693.103 414.235, 687.019 419.710, 685.351 423.702 C 683.610 427.868, 683.627 434.172, 685.390 438.390 C 690.754 451.229, 711.192 454.076, 721.186 443.376 C 732.722 431.026, 722.732 411.713, 705 412.085 C 703.075 412.125, 701.050 412.308, 700.500 412.491 M 906.871 413.505 C 898.082 416.325, 893.016 424.628, 894.290 434.125 C 896.022 447.041, 912.482 454.089, 925.554 447.511 C 932.719 443.905, 935.500 439.268, 935.500 430.927 C 935.500 423.212, 932.908 418.440, 926.874 415.049 C 922.002 412.311, 912.805 411.601, 906.871 413.505 M 1735.871 413.505 C 1724.210 417.246, 1719.304 431.435, 1726.163 441.578 C 1731.238 449.082, 1744.450 452.250, 1753.509 448.135 C 1767.725 441.676, 1768.998 422.425, 1755.702 414.953 C 1750.781 412.187, 1741.981 411.544, 1735.871 413.505 M 87 422.750 L 86.999 427.500 95.092 427.500 L 103.185 427.500 110.138 445.500 C 113.963 455.400, 122.214 476.775, 128.475 493 C 134.736 509.225, 143.966 533.075, 148.986 546 C 154.007 558.925, 160.354 575.350, 163.090 582.500 C 169.201 598.465, 175.575 610.597, 179.322 613.394 C 181.565 615.068, 183.585 615.500, 189.175 615.500 L 196.207 615.500 204.172 594 C 208.553 582.175, 214.773 565.300, 217.995 556.500 C 230.014 523.671, 238.951 499.715, 239.315 499.351 C 239.522 499.145, 245.007 512.819, 251.504 529.738 C 258.002 546.657, 264.533 563.650, 266.018 567.500 C 267.502 571.350, 270.516 579.225, 272.714 585 C 282.471 610.629, 287.072 616, 299.270 616 L 304.603 616 335.903 522.035 C 361.044 446.559, 367.580 427.951, 369.116 427.463 C 370.168 427.129, 373.384 426.927, 376.264 427.013 C 379.144 427.100, 382.063 427.132, 382.750 427.085 C 383.552 427.031, 384 425.388, 384 422.500 L 384 418 357 418 C 331.983 418, 329.994 418.129, 329.919 419.750 C 329.874 420.712, 329.747 422.738, 329.636 424.250 L 329.434 427 338.967 427.171 C 344.210 427.265, 349.812 427.378, 351.416 427.421 C 353.020 427.464, 354.510 428.034, 354.728 428.686 C 355.401 430.703, 309.826 567.445, 308.994 565.903 C 308.260 564.544, 301.778 546.769, 279.491 485 C 273.637 468.775, 266.631 449.397, 263.924 441.939 C 261.216 434.480, 259 428.068, 259 427.689 C 259 427.310, 264.876 427, 272.057 427 L 285.115 427 284.807 422.750 L 284.500 418.500 246.750 418.238 C 221.893 418.065, 209 418.320, 209 418.983 C 209 419.537, 214.400 434.001, 221 451.124 C 227.600 468.247, 233 482.725, 233 483.297 C 233 485.749, 201.617 570.009, 200.971 569.292 C 200.578 568.856, 194.534 552.525, 187.539 533 C 180.544 513.475, 171.740 488.950, 167.976 478.500 C 151.948 434.008, 150.097 428.652, 150.518 427.971 C 150.762 427.577, 156.257 427.213, 162.730 427.162 C 169.204 427.112, 174.838 427.054, 175.250 427.035 C 175.662 427.016, 176 424.975, 176 422.500 L 176 418 131.500 418 L 87 418 87 422.750 M 754 503.500 L 754 585 771 585 L 788 585 788 570.141 L 788 555.282 796.211 547.213 C 800.728 542.775, 804.741 539.340, 805.129 539.580 C 805.517 539.820, 813.836 549.961, 823.615 562.115 C 833.395 574.270, 841.882 584.401, 842.476 584.629 C 843.070 584.857, 852.487 584.921, 863.403 584.772 L 883.249 584.500 876.871 576.500 C 873.364 572.100, 861.989 557.700, 851.595 544.500 C 841.201 531.300, 832.001 519.692, 831.152 518.704 C 829.712 517.030, 831.298 515.216, 854.546 491.954 L 879.485 467 858.946 467 L 838.408 467 813.454 490.594 L 788.500 514.188 788.240 468.094 L 787.980 422 770.990 422 L 754 422 754 503.500 M 422.255 432.250 C 422.831 433.783, 456.302 535.614, 465.643 564.250 L 472.411 585 491.463 585 L 510.514 585 527.929 532.750 L 545.343 480.500 551.939 500.500 C 555.566 511.500, 563.229 535.013, 568.967 552.750 L 579.399 585 598.488 585 L 617.577 585 625.331 561.250 C 629.595 548.188, 640.067 516.125, 648.601 490 C 657.136 463.875, 664.963 439.913, 665.994 436.750 L 667.869 431 650.903 431 C 638.219 431, 633.832 431.315, 633.521 432.250 C 633.293 432.938, 625.319 457.235, 615.803 486.245 C 606.286 515.254, 598.275 538.985, 598 538.980 C 597.725 538.974, 592.852 524.464, 587.171 506.735 C 581.490 489.006, 573.680 464.702, 569.816 452.726 L 562.791 430.953 546.228 431.226 L 529.665 431.500 511.649 485.500 L 493.634 539.500 485.240 513.500 C 480.624 499.200, 472.740 474.788, 467.721 459.250 L 458.595 431 440.191 431 C 425.883 431, 421.890 431.278, 422.255 432.250 M 966 507.922 L 966 585 984 585 L 1002 585 1002 564 L 1002 543 1020.428 543 C 1030.563 543, 1042.357 542.513, 1046.636 541.918 C 1062.511 539.710, 1076.799 533.353, 1085.063 524.822 C 1098.140 511.323, 1102.823 490.797, 1097.345 471 C 1092.272 452.670, 1078.092 439.805, 1056.342 433.800 C 1049.018 431.778, 1045.774 431.609, 1007.250 431.240 L 966 430.845 966 507.922 M 1002 487 L 1002 514.178 1022.250 513.761 C 1045.558 513.281, 1049.535 512.335, 1056.531 505.613 C 1066.710 495.832, 1066.032 475.942, 1055.216 467.027 C 1048.549 461.531, 1044.502 460.698, 1022.250 460.239 L 1002 459.822 1002 487 M 1153.442 466.380 C 1140.828 468.450, 1127.033 473.436, 1120.647 478.232 C 1118.884 479.556, 1119.072 480.178, 1124.512 491.062 C 1127.656 497.353, 1130.393 502.678, 1130.594 502.896 C 1130.795 503.114, 1132.759 502.102, 1134.958 500.647 C 1137.157 499.191, 1142.454 496.792, 1146.728 495.314 C 1153.205 493.075, 1156.166 492.635, 1164.500 492.673 C 1175.020 492.721, 1178.184 493.519, 1184.158 497.628 C 1188.192 500.403, 1192 507.836, 1192 512.935 L 1192 516 1175.072 516 C 1148.154 516, 1135.003 518.824, 1125.256 526.696 C 1109.634 539.314, 1110.942 565.472, 1127.821 577.977 C 1140.921 587.682, 1165.117 589.734, 1180.521 582.447 C 1183.342 581.112, 1187.792 577.908, 1190.411 575.327 C 1193.030 572.745, 1195.080 571.278, 1194.968 572.066 C 1194.855 572.855, 1194.816 576.087, 1194.882 579.250 L 1195 585 1210.750 585 L 1226.500 585 1226.264 546.468 C 1226.081 516.401, 1225.699 506.513, 1224.527 501.459 C 1220.451 483.885, 1208.826 472.281, 1190.500 467.494 C 1182.181 465.320, 1163.344 464.754, 1153.442 466.380 M 1295.500 466.629 C 1274.989 470.924, 1258.117 485.994, 1252.575 504.968 C 1251.697 507.976, 1250.714 514.051, 1250.392 518.468 C 1248.301 547.092, 1267.755 572.091, 1296.338 577.513 C 1306.341 579.411, 1312.202 579.389, 1321.742 577.418 C 1330.488 575.612, 1335.656 573.255, 1341.805 568.268 C 1344.172 566.347, 1346.391 565.058, 1346.735 565.402 C 1347.887 566.554, 1345.130 582.824, 1343.112 586.780 C 1340.720 591.470, 1335.288 596.435, 1330.244 598.543 C 1323.846 601.216, 1312.925 602.221, 1303.770 600.979 C 1293.648 599.607, 1282.118 595.902, 1275.684 591.955 C 1273.035 590.330, 1270.560 589.013, 1270.184 589.028 C 1269.808 589.043, 1266.615 594.290, 1263.089 600.688 L 1256.678 612.321 1259.086 614.271 C 1272.469 625.107, 1304.012 631.243, 1329.028 627.877 C 1345.316 625.685, 1356.521 620.429, 1365.780 610.639 C 1371.761 604.315, 1375.372 597.524, 1378.269 587.154 C 1380.314 579.832, 1380.422 577.062, 1380.764 523.250 L 1381.121 467 1364.710 467 L 1348.300 467 1348.400 474 C 1348.455 477.850, 1348.325 481, 1348.112 481 C 1347.898 481, 1345.801 479.228, 1343.452 477.063 C 1332.289 466.773, 1313.909 462.774, 1295.500 466.629 M 1452.500 466.642 C 1434.596 470.424, 1418.255 482.710, 1410.794 498 C 1406.852 506.078, 1404 517.831, 1404 526 C 1404 534.163, 1406.852 545.924, 1410.769 553.917 C 1422.613 578.087, 1453.603 591.142, 1486 585.611 C 1497.041 583.726, 1509.127 578.321, 1516.060 572.169 L 1520.454 568.269 1513.340 560.385 C 1501.946 547.756, 1502.901 548.284, 1497.795 551.797 C 1488.603 558.121, 1477.898 560.543, 1466.358 558.909 C 1457.922 557.714, 1451.542 554.898, 1446.631 550.201 C 1442.995 546.723, 1439.071 540.045, 1439.022 537.250 C 1439.005 536.268, 1448.529 536, 1483.371 536 L 1527.742 536 1528.375 531.227 C 1529.041 526.208, 1527.789 513.678, 1525.919 506.652 C 1523.899 499.060, 1517.690 488.682, 1511.387 482.364 C 1497.330 468.275, 1474.114 462.076, 1452.500 466.642 M 1582.342 466.407 C 1571.749 468.436, 1565.660 470.711, 1559.101 475.092 C 1550.028 481.150, 1545.537 487.978, 1543.888 498.217 C 1542.179 508.830, 1545.585 519.794, 1552.469 525.839 C 1559.831 532.302, 1567.603 535.001, 1589 538.524 C 1611.401 542.211, 1617.524 545.917, 1613.884 553.583 C 1611.396 558.826, 1606.174 560.505, 1592.500 560.461 C 1578.806 560.416, 1570.741 558.706, 1559.091 553.374 C 1555.017 551.509, 1551.595 550.100, 1551.487 550.242 C 1550.742 551.224, 1541 573.267, 1541 573.971 C 1541 574.457, 1543.414 575.997, 1546.364 577.392 C 1561.565 584.583, 1585.254 588.276, 1602.900 586.206 C 1623.750 583.760, 1637.971 575.810, 1644.233 563.100 C 1646.134 559.243, 1646.499 556.884, 1646.491 548.500 C 1646.481 537.250, 1644.960 533.061, 1638.838 527.430 C 1631.538 520.716, 1623.759 517.802, 1604.142 514.433 C 1596.089 513.050, 1587.502 511.260, 1585.060 510.455 C 1574.089 506.840, 1572.759 498.840, 1582.283 493.755 C 1586.019 491.761, 1587.927 491.506, 1599 491.524 C 1610.571 491.543, 1612.169 491.787, 1620.500 494.802 C 1625.450 496.593, 1630.175 498.271, 1631 498.530 C 1632.095 498.875, 1633.940 495.913, 1637.838 487.548 C 1640.773 481.247, 1642.902 475.651, 1642.569 475.111 C 1641.701 473.708, 1631.912 470.193, 1622.534 467.918 C 1611.880 465.333, 1591.878 464.581, 1582.342 466.407 M 1853 466.136 C 1846.269 467.239, 1834.650 472.612, 1829.816 476.857 C 1827.847 478.585, 1826.019 480, 1825.755 480 C 1825.490 480, 1825.484 477.075, 1825.742 473.500 L 1826.210 467 1809.605 467 L 1793 467 1793 526 L 1793 585 1810 585 L 1827 585 1827 553.210 C 1827 518.344, 1827.605 513.369, 1832.787 505.653 C 1834.297 503.405, 1837.680 500.238, 1840.305 498.615 C 1844.257 496.171, 1846.447 495.586, 1853.055 495.203 C 1863.055 494.624, 1868.561 496.501, 1873.381 502.133 C 1878.938 508.624, 1879.257 511.015, 1879.728 549.750 L 1880.157 585 1897.157 585 L 1914.158 585 1913.772 544.750 C 1913.401 506.051, 1913.298 504.230, 1911.095 497.500 C 1908.230 488.745, 1905.919 484.788, 1900.097 478.666 C 1889.674 467.707, 1872.036 463.015, 1853 466.136 M 688 526 L 688 585 705 585 L 722 585 722 526 L 722 467 705 467 L 688 467 688 526 M 898 526 L 898 585 915 585 L 932 585 932 526 L 932 467 915 467 L 898 467 898 526 M 1727 526 L 1727 585 1744 585 L 1761 585 1761 526 L 1761 467 1744 467 L 1727 467 1727 526 M 1456.766 492.702 C 1448.293 495.528, 1440.865 503.941, 1438.624 513.250 L 1437.962 516 1466.981 516 C 1499.927 516, 1497.913 516.642, 1493.648 507.500 C 1487.324 493.947, 1471.759 487.702, 1456.766 492.702 M 1306.186 494.498 C 1300.009 496.234, 1293.026 500.750, 1290.045 504.936 C 1285.020 511.993, 1283.558 523.413, 1286.554 532.205 C 1292.140 548.598, 1314.963 555.927, 1332.405 546.928 C 1338.085 543.997, 1340.769 541.314, 1343.835 535.500 C 1346.085 531.233, 1346.472 529.254, 1346.472 522 C 1346.472 514.645, 1346.098 512.786, 1343.694 508.199 C 1340.736 502.558, 1334.729 497.521, 1328.178 495.192 C 1322.388 493.133, 1312.187 492.811, 1306.186 494.498 M 1160 536.647 C 1150.716 539.673, 1148 542.779, 1148 550.374 C 1148 563.673, 1169.299 568.770, 1183.641 558.903 C 1189.932 554.575, 1192 550.549, 1192 542.632 L 1192 536 1176.750 536.079 C 1168.362 536.122, 1160.825 536.378, 1160 536.647 M 1677.120 545.133 C 1670.154 546.417, 1663.970 551.530, 1661.938 557.687 C 1660.007 563.540, 1661.142 573.155, 1664.304 577.718 C 1676.324 595.062, 1702.963 586.111, 1702.994 564.718 C 1703.014 551.733, 1690.931 542.587, 1677.120 545.133 M 6.750 1079.743 C 10.738 1079.932, 17.263 1079.932, 21.250 1079.743 C 25.238 1079.553, 21.975 1079.397, 14 1079.397 C 6.025 1079.397, 2.762 1079.553, 6.750 1079.743 " stroke="none" fill="black" fill-rule="evenodd"/>
</svg>